<svg width="820" height="921" viewBox="0 0 820 921" fill="blue" xmlns="http://www.w3.org/2000/svg">
<path d="M33.3465 270.471C33.3465 279.426 26.0871 286.685 17.1321 286.685C8.17709 286.685 0.917633 279.426 0.917633 270.471C0.917633 261.516 8.17709 254.257 17.1321 254.257C26.0871 254.257 33.3465 261.516 33.3465 270.471Z" fill=""/>
<path d="M33.3465 16.7552C33.3465 25.7102 26.0871 32.9697 17.1321 32.9697C8.17709 32.9697 0.917633 25.7102 0.917633 16.7552C0.917633 7.80023 8.17709 0.540771 17.1321 0.540771C26.0871 0.540771 33.3465 7.80023 33.3465 16.7552Z" fill=""/>
<path d="M33.3465 524.187C33.3465 533.142 26.087 540.401 17.132 540.401C8.17706 540.401 0.917603 533.142 0.917603 524.187C0.917603 515.232 8.17706 507.972 17.132 507.972C26.087 507.972 33.3465 515.232 33.3465 524.187Z" fill=""/>
<path d="M33.3465 397.329C33.3465 406.284 26.0871 413.543 17.1321 413.543C8.17709 413.543 0.917633 406.284 0.917633 397.329C0.917633 388.374 8.17709 381.115 17.1321 381.115C26.0871 381.115 33.3465 388.374 33.3465 397.329Z" fill=""/>
<path d="M33.3465 143.613C33.3465 152.568 26.0871 159.828 17.1321 159.828C8.17709 159.828 0.917633 152.568 0.917633 143.613C0.917633 134.658 8.17709 127.399 17.1321 127.399C26.0871 127.399 33.3465 134.658 33.3465 143.613Z" fill=""/>
<path d="M33.3465 651.045C33.3465 660 26.087 667.259 17.132 667.259C8.17706 667.259 0.917603 660 0.917603 651.045C0.917603 642.09 8.17706 634.83 17.132 634.83C26.087 634.83 33.3465 642.09 33.3465 651.045Z" fill=""/>
<path d="M461.92 270.471C461.92 279.426 454.661 286.685 445.706 286.685C436.751 286.685 429.491 279.426 429.491 270.471C429.491 261.516 436.751 254.257 445.706 254.257C454.661 254.257 461.92 261.516 461.92 270.471Z" fill=""/>
<path d="M461.92 16.7552C461.92 25.7102 454.661 32.9697 445.706 32.9697C436.751 32.9697 429.491 25.7102 429.491 16.7552C429.491 7.80023 436.751 0.540771 445.706 0.540771C454.661 0.540771 461.92 7.80023 461.92 16.7552Z" fill=""/>
<path d="M461.92 777.903C461.92 786.858 454.661 794.117 445.706 794.117C436.751 794.117 429.491 786.858 429.491 777.903C429.491 768.948 436.751 761.688 445.706 761.688C454.661 761.688 461.92 768.948 461.92 777.903Z" fill=""/>
<path d="M461.92 524.187C461.92 533.142 454.661 540.401 445.706 540.401C436.751 540.401 429.491 533.142 429.491 524.187C429.491 515.232 436.751 507.972 445.706 507.972C454.661 507.972 461.92 515.232 461.92 524.187Z" fill=""/>
<path d="M461.92 397.329C461.92 406.284 454.661 413.543 445.706 413.543C436.751 413.543 429.491 406.284 429.491 397.329C429.491 388.374 436.751 381.115 445.706 381.115C454.661 381.115 461.92 388.374 461.92 397.329Z" fill=""/>
<path d="M461.92 143.613C461.92 152.568 454.661 159.828 445.706 159.828C436.751 159.828 429.491 152.568 429.491 143.613C429.491 134.658 436.751 127.399 445.706 127.399C454.661 127.399 461.92 134.658 461.92 143.613Z" fill=""/>
<path d="M461.92 651.045C461.92 660 454.661 667.259 445.706 667.259C436.751 667.259 429.491 660 429.491 651.045C429.491 642.09 436.751 634.83 445.706 634.83C454.661 634.83 461.92 642.09 461.92 651.045Z" fill=""/>
<path d="M33.3465 333.9C33.3465 342.855 26.0871 350.114 17.1321 350.114C8.17709 350.114 0.917633 342.855 0.917633 333.9C0.917633 324.945 8.17709 317.686 17.1321 317.686C26.0871 317.686 33.3465 324.945 33.3465 333.9Z" fill=""/>
<path d="M33.3465 80.1842C33.3465 89.1392 26.0871 96.3986 17.1321 96.3986C8.17709 96.3986 0.917633 89.1392 0.917633 80.1842C0.917633 71.2292 8.17709 63.9697 17.1321 63.9697C26.0871 63.9697 33.3465 71.2292 33.3465 80.1842Z" fill=""/>
<path d="M33.3465 587.616C33.3465 596.571 26.087 603.83 17.132 603.83C8.17706 603.83 0.917603 596.571 0.917603 587.616C0.917603 578.661 8.17706 571.401 17.132 571.401C26.087 571.401 33.3465 578.661 33.3465 587.616Z" fill=""/>
<path d="M33.3465 460.758C33.3465 469.713 26.0871 476.972 17.1321 476.972C8.17709 476.972 0.917633 469.713 0.917633 460.758C0.917633 451.803 8.17709 444.543 17.1321 444.543C26.0871 444.543 33.3465 451.803 33.3465 460.758Z" fill=""/>
<path d="M33.3465 207.042C33.3465 215.997 26.0871 223.257 17.1321 223.257C8.17709 223.257 0.917633 215.997 0.917633 207.042C0.917633 198.087 8.17709 190.828 17.1321 190.828C26.0871 190.828 33.3465 198.087 33.3465 207.042Z" fill=""/>
<path d="M33.3465 714.474C33.3465 723.429 26.087 730.688 17.132 730.688C8.17706 730.688 0.917603 723.429 0.917603 714.474C0.917603 705.519 8.17706 698.259 17.132 698.259C26.087 698.259 33.3465 705.519 33.3465 714.474Z" fill=""/>
<path d="M461.92 333.9C461.92 342.855 454.661 350.114 445.706 350.114C436.751 350.114 429.491 342.855 429.491 333.9C429.491 324.945 436.751 317.686 445.706 317.686C454.661 317.686 461.92 324.945 461.92 333.9Z" fill=""/>
<path d="M461.92 80.1842C461.92 89.1392 454.661 96.3986 445.706 96.3986C436.751 96.3986 429.491 89.1392 429.491 80.1842C429.491 71.2292 436.751 63.9697 445.706 63.9697C454.661 63.9697 461.92 71.2292 461.92 80.1842Z" fill=""/>
<path d="M461.92 587.616C461.92 596.571 454.661 603.83 445.706 603.83C436.751 603.83 429.491 596.571 429.491 587.616C429.491 578.661 436.751 571.401 445.706 571.401C454.661 571.401 461.92 578.661 461.92 587.616Z" fill=""/>
<path d="M461.92 460.758C461.92 469.713 454.661 476.972 445.706 476.972C436.751 476.972 429.491 469.713 429.491 460.758C429.491 451.803 436.751 444.543 445.706 444.543C454.661 444.543 461.92 451.803 461.92 460.758Z" fill=""/>
<path d="M461.92 207.042C461.92 215.997 454.661 223.257 445.706 223.257C436.751 223.257 429.491 215.997 429.491 207.042C429.491 198.087 436.751 190.828 445.706 190.828C454.661 190.828 461.92 198.087 461.92 207.042Z" fill=""/>
<path d="M461.92 714.474C461.92 723.429 454.661 730.688 445.706 730.688C436.751 730.688 429.491 723.429 429.491 714.474C429.491 705.519 436.751 698.259 445.706 698.259C454.661 698.259 461.92 705.519 461.92 714.474Z" fill=""/>
<path d="M248.197 270.471C248.197 279.426 240.938 286.685 231.983 286.685C223.028 286.685 215.768 279.426 215.768 270.471C215.768 261.516 223.028 254.257 231.983 254.257C240.938 254.257 248.197 261.516 248.197 270.471Z" fill=""/>
<path d="M248.197 16.7552C248.197 25.7102 240.938 32.9697 231.983 32.9697C223.028 32.9697 215.768 25.7102 215.768 16.7552C215.768 7.80023 223.028 0.540771 231.983 0.540771C240.938 0.540771 248.197 7.80023 248.197 16.7552Z" fill=""/>
<path d="M248.197 777.903C248.197 786.858 240.938 794.117 231.983 794.117C223.028 794.117 215.768 786.858 215.768 777.903C215.768 768.948 223.028 761.688 231.983 761.688C240.938 761.688 248.197 768.948 248.197 777.903Z" fill=""/>
<path d="M248.197 524.187C248.197 533.142 240.938 540.401 231.983 540.401C223.028 540.401 215.768 533.142 215.768 524.187C215.768 515.232 223.028 507.972 231.983 507.972C240.938 507.972 248.197 515.232 248.197 524.187Z" fill=""/>
<path d="M248.197 397.329C248.197 406.284 240.938 413.543 231.983 413.543C223.028 413.543 215.768 406.284 215.768 397.329C215.768 388.374 223.028 381.115 231.983 381.115C240.938 381.115 248.197 388.374 248.197 397.329Z" fill=""/>
<path d="M248.197 143.613C248.197 152.568 240.938 159.828 231.983 159.828C223.028 159.828 215.768 152.568 215.768 143.613C215.768 134.658 223.028 127.399 231.983 127.399C240.938 127.399 248.197 134.658 248.197 143.613Z" fill=""/>
<path d="M248.197 904.761C248.197 913.716 240.938 920.975 231.983 920.975C223.028 920.975 215.768 913.716 215.768 904.761C215.768 895.806 223.028 888.546 231.983 888.546C240.938 888.546 248.197 895.806 248.197 904.761Z" fill=""/>
<path d="M248.197 651.045C248.197 660 240.938 667.259 231.983 667.259C223.028 667.259 215.768 660 215.768 651.045C215.768 642.09 223.028 634.83 231.983 634.83C240.938 634.83 248.197 642.09 248.197 651.045Z" fill=""/>
<path d="M676.207 270.471C676.207 279.426 668.947 286.685 659.992 286.685C651.037 286.685 643.778 279.426 643.778 270.471C643.778 261.516 651.037 254.257 659.992 254.257C668.947 254.257 676.207 261.516 676.207 270.471Z" fill=""/>
<path d="M676.207 16.7552C676.207 25.7102 668.947 32.9697 659.992 32.9697C651.037 32.9697 643.778 25.7102 643.778 16.7552C643.778 7.80023 651.037 0.540771 659.992 0.540771C668.947 0.540771 676.207 7.80023 676.207 16.7552Z" fill=""/>
<path d="M676.207 524.187C676.207 533.142 668.947 540.401 659.992 540.401C651.037 540.401 643.778 533.142 643.778 524.187C643.778 515.232 651.037 507.972 659.992 507.972C668.947 507.972 676.207 515.232 676.207 524.187Z" fill=""/>
<path d="M676.207 397.329C676.207 406.284 668.947 413.543 659.992 413.543C651.037 413.543 643.778 406.284 643.778 397.329C643.778 388.374 651.037 381.115 659.992 381.115C668.947 381.115 676.207 388.374 676.207 397.329Z" fill=""/>
<path d="M676.207 143.613C676.207 152.568 668.947 159.828 659.992 159.828C651.037 159.828 643.778 152.568 643.778 143.613C643.778 134.658 651.037 127.399 659.992 127.399C668.947 127.399 676.207 134.658 676.207 143.613Z" fill=""/>
<path d="M676.207 651.045C676.207 660 668.947 667.259 659.992 667.259C651.037 667.259 643.778 660 643.778 651.045C643.778 642.09 651.037 634.83 659.992 634.83C668.947 634.83 676.207 642.09 676.207 651.045Z" fill=""/>
<path d="M248.197 333.9C248.197 342.855 240.938 350.114 231.983 350.114C223.028 350.114 215.768 342.855 215.768 333.9C215.768 324.945 223.028 317.686 231.983 317.686C240.938 317.686 248.197 324.945 248.197 333.9Z" fill=""/>
<path d="M248.197 80.1842C248.197 89.1392 240.938 96.3986 231.983 96.3986C223.028 96.3986 215.768 89.1392 215.768 80.1842C215.768 71.2292 223.028 63.9697 231.983 63.9697C240.938 63.9697 248.197 71.2292 248.197 80.1842Z" fill=""/>
<path d="M248.197 841.332C248.197 850.287 240.938 857.546 231.983 857.546C223.028 857.546 215.768 850.287 215.768 841.332C215.768 832.377 223.028 825.117 231.983 825.117C240.938 825.117 248.197 832.377 248.197 841.332Z" fill=""/>
<path d="M248.197 587.616C248.197 596.571 240.938 603.83 231.983 603.83C223.028 603.83 215.768 596.571 215.768 587.616C215.768 578.661 223.028 571.401 231.983 571.401C240.938 571.401 248.197 578.661 248.197 587.616Z" fill=""/>
<path d="M248.197 460.758C248.197 469.713 240.938 476.972 231.983 476.972C223.028 476.972 215.768 469.713 215.768 460.758C215.768 451.803 223.028 444.543 231.983 444.543C240.938 444.543 248.197 451.803 248.197 460.758Z" fill=""/>
<path d="M248.197 207.042C248.197 215.997 240.938 223.257 231.983 223.257C223.028 223.257 215.768 215.997 215.768 207.042C215.768 198.087 223.028 190.828 231.983 190.828C240.938 190.828 248.197 198.087 248.197 207.042Z" fill=""/>
<path d="M248.197 714.474C248.197 723.429 240.938 730.688 231.983 730.688C223.028 730.688 215.768 723.429 215.768 714.474C215.768 705.519 223.028 698.259 231.983 698.259C240.938 698.259 248.197 705.519 248.197 714.474Z" fill=""/>
<path d="M676.207 333.9C676.207 342.855 668.947 350.114 659.992 350.114C651.037 350.114 643.778 342.855 643.778 333.9C643.778 324.945 651.037 317.686 659.992 317.686C668.947 317.686 676.207 324.945 676.207 333.9Z" fill=""/>
<path d="M676.207 80.1842C676.207 89.1392 668.947 96.3986 659.992 96.3986C651.037 96.3986 643.778 89.1392 643.778 80.1842C643.778 71.2292 651.037 63.9697 659.992 63.9697C668.947 63.9697 676.207 71.2292 676.207 80.1842Z" fill=""/>
<path d="M676.207 587.616C676.207 596.571 668.947 603.83 659.992 603.83C651.037 603.83 643.778 596.571 643.778 587.616C643.778 578.661 651.037 571.401 659.992 571.401C668.947 571.401 676.207 578.661 676.207 587.616Z" fill=""/>
<path d="M676.207 460.758C676.207 469.713 668.947 476.972 659.992 476.972C651.037 476.972 643.778 469.713 643.778 460.758C643.778 451.803 651.037 444.543 659.992 444.543C668.947 444.543 676.207 451.803 676.207 460.758Z" fill=""/>
<path d="M676.207 207.042C676.207 215.997 668.947 223.257 659.992 223.257C651.037 223.257 643.778 215.997 643.778 207.042C643.778 198.087 651.037 190.828 659.992 190.828C668.947 190.828 676.207 198.087 676.207 207.042Z" fill=""/>
<path d="M676.207 714.474C676.207 723.429 668.947 730.688 659.992 730.688C651.037 730.688 643.778 723.429 643.778 714.474C643.778 705.519 651.037 698.259 659.992 698.259C668.947 698.259 676.207 705.519 676.207 714.474Z" fill=""/>
<path d="M104.963 270.471C104.963 279.426 97.704 286.685 88.749 286.685C79.794 286.685 72.5346 279.426 72.5346 270.471C72.5346 261.516 79.794 254.257 88.749 254.257C97.704 254.257 104.963 261.516 104.963 270.471Z" fill=""/>
<path d="M104.963 16.7552C104.963 25.7102 97.704 32.9697 88.749 32.9697C79.794 32.9697 72.5346 25.7102 72.5346 16.7552C72.5346 7.80023 79.794 0.540771 88.749 0.540771C97.704 0.540771 104.963 7.80023 104.963 16.7552Z" fill=""/>
<path d="M104.963 524.187C104.963 533.142 97.704 540.401 88.749 540.401C79.794 540.401 72.5345 533.142 72.5345 524.187C72.5345 515.232 79.794 507.972 88.749 507.972C97.704 507.972 104.963 515.232 104.963 524.187Z" fill=""/>
<path d="M104.963 397.329C104.963 406.284 97.704 413.543 88.749 413.543C79.794 413.543 72.5346 406.284 72.5346 397.329C72.5346 388.374 79.794 381.115 88.749 381.115C97.704 381.115 104.963 388.374 104.963 397.329Z" fill=""/>
<path d="M104.963 143.613C104.963 152.568 97.704 159.828 88.749 159.828C79.794 159.828 72.5346 152.568 72.5346 143.613C72.5346 134.658 79.794 127.399 88.749 127.399C97.704 127.399 104.963 134.658 104.963 143.613Z" fill=""/>
<path d="M104.963 651.045C104.963 660 97.704 667.259 88.749 667.259C79.794 667.259 72.5345 660 72.5345 651.045C72.5345 642.09 79.794 634.83 88.749 634.83C97.704 634.83 104.963 642.09 104.963 651.045Z" fill=""/>
<path d="M533.349 270.471C533.349 279.426 526.089 286.685 517.134 286.685C508.179 286.685 500.92 279.426 500.92 270.471C500.92 261.516 508.179 254.257 517.134 254.257C526.089 254.257 533.349 261.516 533.349 270.471Z" fill=""/>
<path d="M533.349 16.7552C533.349 25.7102 526.089 32.9697 517.134 32.9697C508.179 32.9697 500.92 25.7102 500.92 16.7552C500.92 7.80023 508.179 0.540771 517.134 0.540771C526.089 0.540771 533.349 7.80023 533.349 16.7552Z" fill=""/>
<path d="M533.349 777.903C533.349 786.858 526.089 794.117 517.134 794.117C508.179 794.117 500.92 786.858 500.92 777.903C500.92 768.948 508.179 761.688 517.134 761.688C526.089 761.688 533.349 768.948 533.349 777.903Z" fill=""/>
<path d="M533.349 524.187C533.349 533.142 526.089 540.401 517.134 540.401C508.179 540.401 500.92 533.142 500.92 524.187C500.92 515.232 508.179 507.972 517.134 507.972C526.089 507.972 533.349 515.232 533.349 524.187Z" fill=""/>
<path d="M533.349 397.329C533.349 406.284 526.089 413.543 517.134 413.543C508.179 413.543 500.92 406.284 500.92 397.329C500.92 388.374 508.179 381.115 517.134 381.115C526.089 381.115 533.349 388.374 533.349 397.329Z" fill=""/>
<path d="M533.349 143.613C533.349 152.568 526.089 159.828 517.134 159.828C508.179 159.828 500.92 152.568 500.92 143.613C500.92 134.658 508.179 127.399 517.134 127.399C526.089 127.399 533.349 134.658 533.349 143.613Z" fill=""/>
<path d="M533.349 651.045C533.349 660 526.089 667.259 517.134 667.259C508.179 667.259 500.92 660 500.92 651.045C500.92 642.09 508.179 634.83 517.134 634.83C526.089 634.83 533.349 642.09 533.349 651.045Z" fill=""/>
<path d="M104.963 333.9C104.963 342.855 97.704 350.114 88.749 350.114C79.794 350.114 72.5346 342.855 72.5346 333.9C72.5346 324.945 79.794 317.686 88.749 317.686C97.704 317.686 104.963 324.945 104.963 333.9Z" fill=""/>
<path d="M104.963 80.1842C104.963 89.1392 97.704 96.3986 88.749 96.3986C79.794 96.3986 72.5346 89.1392 72.5346 80.1842C72.5346 71.2292 79.794 63.9697 88.749 63.9697C97.704 63.9697 104.963 71.2292 104.963 80.1842Z" fill=""/>
<path d="M104.963 587.616C104.963 596.571 97.704 603.83 88.749 603.83C79.794 603.83 72.5345 596.571 72.5345 587.616C72.5345 578.661 79.794 571.401 88.749 571.401C97.704 571.401 104.963 578.661 104.963 587.616Z" fill=""/>
<path d="M104.963 460.758C104.963 469.713 97.704 476.972 88.749 476.972C79.794 476.972 72.5346 469.713 72.5346 460.758C72.5346 451.803 79.794 444.543 88.749 444.543C97.704 444.543 104.963 451.803 104.963 460.758Z" fill=""/>
<path d="M104.963 207.042C104.963 215.997 97.704 223.257 88.749 223.257C79.794 223.257 72.5346 215.997 72.5346 207.042C72.5346 198.087 79.794 190.828 88.749 190.828C97.704 190.828 104.963 198.087 104.963 207.042Z" fill=""/>
<path d="M104.963 714.474C104.963 723.429 97.704 730.688 88.749 730.688C79.794 730.688 72.5345 723.429 72.5345 714.474C72.5345 705.519 79.794 698.259 88.749 698.259C97.704 698.259 104.963 705.519 104.963 714.474Z" fill=""/>
<path d="M533.349 333.9C533.349 342.855 526.089 350.114 517.134 350.114C508.179 350.114 500.92 342.855 500.92 333.9C500.92 324.945 508.179 317.686 517.134 317.686C526.089 317.686 533.349 324.945 533.349 333.9Z" fill=""/>
<path d="M533.349 80.1842C533.349 89.1392 526.089 96.3986 517.134 96.3986C508.179 96.3986 500.92 89.1392 500.92 80.1842C500.92 71.2292 508.179 63.9697 517.134 63.9697C526.089 63.9697 533.349 71.2292 533.349 80.1842Z" fill=""/>
<path d="M533.349 587.616C533.349 596.571 526.089 603.83 517.134 603.83C508.179 603.83 500.92 596.571 500.92 587.616C500.92 578.661 508.179 571.401 517.134 571.401C526.089 571.401 533.349 578.661 533.349 587.616Z" fill=""/>
<path d="M533.349 460.758C533.349 469.713 526.089 476.972 517.134 476.972C508.179 476.972 500.92 469.713 500.92 460.758C500.92 451.803 508.179 444.543 517.134 444.543C526.089 444.543 533.349 451.803 533.349 460.758Z" fill=""/>
<path d="M533.349 207.042C533.349 215.997 526.089 223.257 517.134 223.257C508.179 223.257 500.92 215.997 500.92 207.042C500.92 198.087 508.179 190.828 517.134 190.828C526.089 190.828 533.349 198.087 533.349 207.042Z" fill=""/>
<path d="M533.349 714.474C533.349 723.429 526.089 730.688 517.134 730.688C508.179 730.688 500.92 723.429 500.92 714.474C500.92 705.519 508.179 698.259 517.134 698.259C526.089 698.259 533.349 705.519 533.349 714.474Z" fill=""/>
<path d="M319.814 270.471C319.814 279.426 312.555 286.685 303.6 286.685C294.645 286.685 287.385 279.426 287.385 270.471C287.385 261.516 294.645 254.257 303.6 254.257C312.555 254.257 319.814 261.516 319.814 270.471Z" fill=""/>
<path d="M319.814 16.7552C319.814 25.7102 312.555 32.9697 303.6 32.9697C294.645 32.9697 287.385 25.7102 287.385 16.7552C287.385 7.80023 294.645 0.540771 303.6 0.540771C312.555 0.540771 319.814 7.80023 319.814 16.7552Z" fill=""/>
<path d="M319.814 777.903C319.814 786.858 312.555 794.117 303.6 794.117C294.645 794.117 287.385 786.858 287.385 777.903C287.385 768.948 294.645 761.688 303.6 761.688C312.555 761.688 319.814 768.948 319.814 777.903Z" fill=""/>
<path d="M319.814 524.187C319.814 533.142 312.555 540.401 303.6 540.401C294.645 540.401 287.385 533.142 287.385 524.187C287.385 515.232 294.645 507.972 303.6 507.972C312.555 507.972 319.814 515.232 319.814 524.187Z" fill=""/>
<path d="M319.814 397.329C319.814 406.284 312.555 413.543 303.6 413.543C294.645 413.543 287.385 406.284 287.385 397.329C287.385 388.374 294.645 381.115 303.6 381.115C312.555 381.115 319.814 388.374 319.814 397.329Z" fill=""/>
<path d="M319.814 143.613C319.814 152.568 312.555 159.828 303.6 159.828C294.645 159.828 287.385 152.568 287.385 143.613C287.385 134.658 294.645 127.399 303.6 127.399C312.555 127.399 319.814 134.658 319.814 143.613Z" fill=""/>
<path d="M319.814 904.761C319.814 913.716 312.555 920.975 303.6 920.975C294.645 920.975 287.385 913.716 287.385 904.761C287.385 895.806 294.645 888.546 303.6 888.546C312.555 888.546 319.814 895.806 319.814 904.761Z" fill=""/>
<path d="M319.814 651.045C319.814 660 312.555 667.259 303.6 667.259C294.645 667.259 287.385 660 287.385 651.045C287.385 642.09 294.645 634.83 303.6 634.83C312.555 634.83 319.814 642.09 319.814 651.045Z" fill=""/>
<path d="M747.635 270.471C747.635 279.426 740.376 286.685 731.421 286.685C722.466 286.685 715.207 279.426 715.207 270.471C715.207 261.516 722.466 254.257 731.421 254.257C740.376 254.257 747.635 261.516 747.635 270.471Z" fill=""/>
<path d="M747.635 16.7552C747.635 25.7102 740.376 32.9697 731.421 32.9697C722.466 32.9697 715.207 25.7102 715.207 16.7552C715.207 7.80023 722.466 0.540771 731.421 0.540771C740.376 0.540771 747.635 7.80023 747.635 16.7552Z" fill=""/>
<path d="M747.636 524.187C747.636 533.142 740.376 540.401 731.421 540.401C722.466 540.401 715.207 533.142 715.207 524.187C715.207 515.232 722.466 507.972 731.421 507.972C740.376 507.972 747.636 515.232 747.636 524.187Z" fill=""/>
<path d="M747.635 397.329C747.635 406.284 740.376 413.543 731.421 413.543C722.466 413.543 715.207 406.284 715.207 397.329C715.207 388.374 722.466 381.115 731.421 381.115C740.376 381.115 747.635 388.374 747.635 397.329Z" fill=""/>
<path d="M747.635 143.613C747.635 152.568 740.376 159.828 731.421 159.828C722.466 159.828 715.207 152.568 715.207 143.613C715.207 134.658 722.466 127.399 731.421 127.399C740.376 127.399 747.635 134.658 747.635 143.613Z" fill=""/>
<path d="M319.814 333.9C319.814 342.855 312.555 350.114 303.6 350.114C294.645 350.114 287.385 342.855 287.385 333.9C287.385 324.945 294.645 317.686 303.6 317.686C312.555 317.686 319.814 324.945 319.814 333.9Z" fill=""/>
<path d="M319.814 80.1842C319.814 89.1392 312.555 96.3986 303.6 96.3986C294.645 96.3986 287.385 89.1392 287.385 80.1842C287.385 71.2292 294.645 63.9697 303.6 63.9697C312.555 63.9697 319.814 71.2292 319.814 80.1842Z" fill=""/>
<path d="M319.814 841.332C319.814 850.287 312.555 857.546 303.6 857.546C294.645 857.546 287.385 850.287 287.385 841.332C287.385 832.377 294.645 825.117 303.6 825.117C312.555 825.117 319.814 832.377 319.814 841.332Z" fill=""/>
<path d="M319.814 587.616C319.814 596.571 312.555 603.83 303.6 603.83C294.645 603.83 287.385 596.571 287.385 587.616C287.385 578.661 294.645 571.401 303.6 571.401C312.555 571.401 319.814 578.661 319.814 587.616Z" fill=""/>
<path d="M319.814 460.758C319.814 469.713 312.555 476.972 303.6 476.972C294.645 476.972 287.385 469.713 287.385 460.758C287.385 451.803 294.645 444.543 303.6 444.543C312.555 444.543 319.814 451.803 319.814 460.758Z" fill=""/>
<path d="M319.814 207.042C319.814 215.997 312.555 223.257 303.6 223.257C294.645 223.257 287.385 215.997 287.385 207.042C287.385 198.087 294.645 190.828 303.6 190.828C312.555 190.828 319.814 198.087 319.814 207.042Z" fill=""/>
<path d="M319.814 714.474C319.814 723.429 312.555 730.688 303.6 730.688C294.645 730.688 287.385 723.429 287.385 714.474C287.385 705.519 294.645 698.259 303.6 698.259C312.555 698.259 319.814 705.519 319.814 714.474Z" fill=""/>
<path d="M747.635 333.9C747.635 342.855 740.376 350.114 731.421 350.114C722.466 350.114 715.207 342.855 715.207 333.9C715.207 324.945 722.466 317.686 731.421 317.686C740.376 317.686 747.635 324.945 747.635 333.9Z" fill=""/>
<path d="M747.635 80.1842C747.635 89.1392 740.376 96.3986 731.421 96.3986C722.466 96.3986 715.207 89.1392 715.207 80.1842C715.207 71.2292 722.466 63.9697 731.421 63.9697C740.376 63.9697 747.635 71.2292 747.635 80.1842Z" fill=""/>
<path d="M747.636 587.616C747.636 596.571 740.376 603.83 731.421 603.83C722.466 603.83 715.207 596.571 715.207 587.616C715.207 578.661 722.466 571.401 731.421 571.401C740.376 571.401 747.636 578.661 747.636 587.616Z" fill=""/>
<path d="M747.635 460.758C747.635 469.713 740.376 476.972 731.421 476.972C722.466 476.972 715.207 469.713 715.207 460.758C715.207 451.803 722.466 444.543 731.421 444.543C740.376 444.543 747.635 451.803 747.635 460.758Z" fill=""/>
<path d="M747.635 207.042C747.635 215.997 740.376 223.257 731.421 223.257C722.466 223.257 715.207 215.997 715.207 207.042C715.207 198.087 722.466 190.828 731.421 190.828C740.376 190.828 747.635 198.087 747.635 207.042Z" fill=""/>
<path d="M176.58 270.471C176.58 279.426 169.321 286.685 160.366 286.685C151.411 286.685 144.152 279.426 144.152 270.471C144.152 261.516 151.411 254.257 160.366 254.257C169.321 254.257 176.58 261.516 176.58 270.471Z" fill=""/>
<path d="M176.58 16.7552C176.58 25.7102 169.321 32.9697 160.366 32.9697C151.411 32.9697 144.152 25.7102 144.152 16.7552C144.152 7.80023 151.411 0.540771 160.366 0.540771C169.321 0.540771 176.58 7.80023 176.58 16.7552Z" fill=""/>
<path d="M176.58 524.187C176.58 533.142 169.321 540.401 160.366 540.401C151.411 540.401 144.151 533.142 144.151 524.187C144.151 515.232 151.411 507.972 160.366 507.972C169.321 507.972 176.58 515.232 176.58 524.187Z" fill=""/>
<path d="M176.58 397.329C176.58 406.284 169.321 413.543 160.366 413.543C151.411 413.543 144.152 406.284 144.152 397.329C144.152 388.374 151.411 381.115 160.366 381.115C169.321 381.115 176.58 388.374 176.58 397.329Z" fill=""/>
<path d="M176.58 143.613C176.58 152.568 169.321 159.828 160.366 159.828C151.411 159.828 144.152 152.568 144.152 143.613C144.152 134.658 151.411 127.399 160.366 127.399C169.321 127.399 176.58 134.658 176.58 143.613Z" fill=""/>
<path d="M176.58 651.045C176.58 660 169.321 667.259 160.366 667.259C151.411 667.259 144.151 660 144.151 651.045C144.151 642.09 151.411 634.83 160.366 634.83C169.321 634.83 176.58 642.09 176.58 651.045Z" fill=""/>
<path d="M604.778 270.471C604.778 279.426 597.518 286.685 588.563 286.685C579.608 286.685 572.349 279.426 572.349 270.471C572.349 261.516 579.608 254.257 588.563 254.257C597.518 254.257 604.778 261.516 604.778 270.471Z" fill=""/>
<path d="M604.778 16.7552C604.778 25.7102 597.518 32.9697 588.563 32.9697C579.608 32.9697 572.349 25.7102 572.349 16.7552C572.349 7.80023 579.608 0.540771 588.563 0.540771C597.518 0.540771 604.778 7.80023 604.778 16.7552Z" fill=""/>
<path d="M604.778 777.903C604.778 786.858 597.518 794.117 588.563 794.117C579.608 794.117 572.349 786.858 572.349 777.903C572.349 768.948 579.608 761.688 588.563 761.688C597.518 761.688 604.778 768.948 604.778 777.903Z" fill=""/>
<path d="M604.778 524.187C604.778 533.142 597.518 540.401 588.563 540.401C579.608 540.401 572.349 533.142 572.349 524.187C572.349 515.232 579.608 507.972 588.563 507.972C597.518 507.972 604.778 515.232 604.778 524.187Z" fill=""/>
<path d="M604.778 397.329C604.778 406.284 597.518 413.543 588.563 413.543C579.608 413.543 572.349 406.284 572.349 397.329C572.349 388.374 579.608 381.115 588.563 381.115C597.518 381.115 604.778 388.374 604.778 397.329Z" fill=""/>
<path d="M604.778 143.613C604.778 152.568 597.518 159.828 588.563 159.828C579.608 159.828 572.349 152.568 572.349 143.613C572.349 134.658 579.608 127.399 588.563 127.399C597.518 127.399 604.778 134.658 604.778 143.613Z" fill=""/>
<path d="M604.778 651.045C604.778 660 597.518 667.259 588.563 667.259C579.608 667.259 572.349 660 572.349 651.045C572.349 642.09 579.608 634.83 588.563 634.83C597.518 634.83 604.778 642.09 604.778 651.045Z" fill=""/>
<path d="M176.58 333.9C176.58 342.855 169.321 350.114 160.366 350.114C151.411 350.114 144.152 342.855 144.152 333.9C144.152 324.945 151.411 317.686 160.366 317.686C169.321 317.686 176.58 324.945 176.58 333.9Z" fill=""/>
<path d="M176.58 80.1842C176.58 89.1392 169.321 96.3986 160.366 96.3986C151.411 96.3986 144.152 89.1392 144.152 80.1842C144.152 71.2292 151.411 63.9697 160.366 63.9697C169.321 63.9697 176.58 71.2292 176.58 80.1842Z" fill=""/>
<path d="M176.58 587.616C176.58 596.571 169.321 603.83 160.366 603.83C151.411 603.83 144.151 596.571 144.151 587.616C144.151 578.661 151.411 571.401 160.366 571.401C169.321 571.401 176.58 578.661 176.58 587.616Z" fill=""/>
<path d="M176.58 460.758C176.58 469.713 169.321 476.972 160.366 476.972C151.411 476.972 144.152 469.713 144.152 460.758C144.152 451.803 151.411 444.543 160.366 444.543C169.321 444.543 176.58 451.803 176.58 460.758Z" fill=""/>
<path d="M176.58 207.042C176.58 215.997 169.321 223.257 160.366 223.257C151.411 223.257 144.152 215.997 144.152 207.042C144.152 198.087 151.411 190.828 160.366 190.828C169.321 190.828 176.58 198.087 176.58 207.042Z" fill=""/>
<path d="M176.58 714.474C176.58 723.429 169.321 730.688 160.366 730.688C151.411 730.688 144.151 723.429 144.151 714.474C144.151 705.519 151.411 698.259 160.366 698.259C169.321 698.259 176.58 705.519 176.58 714.474Z" fill=""/>
<path d="M604.778 333.9C604.778 342.855 597.518 350.114 588.563 350.114C579.608 350.114 572.349 342.855 572.349 333.9C572.349 324.945 579.608 317.686 588.563 317.686C597.518 317.686 604.778 324.945 604.778 333.9Z" fill=""/>
<path d="M604.778 80.1842C604.778 89.1392 597.518 96.3986 588.563 96.3986C579.608 96.3986 572.349 89.1392 572.349 80.1842C572.349 71.2292 579.608 63.9697 588.563 63.9697C597.518 63.9697 604.778 71.2292 604.778 80.1842Z" fill=""/>
<path d="M604.778 587.616C604.778 596.571 597.518 603.83 588.563 603.83C579.608 603.83 572.349 596.571 572.349 587.616C572.349 578.661 579.608 571.401 588.563 571.401C597.518 571.401 604.778 578.661 604.778 587.616Z" fill=""/>
<path d="M604.778 460.758C604.778 469.713 597.518 476.972 588.563 476.972C579.608 476.972 572.349 469.713 572.349 460.758C572.349 451.803 579.608 444.543 588.563 444.543C597.518 444.543 604.778 451.803 604.778 460.758Z" fill=""/>
<path d="M604.778 207.042C604.778 215.997 597.518 223.257 588.563 223.257C579.608 223.257 572.349 215.997 572.349 207.042C572.349 198.087 579.608 190.828 588.563 190.828C597.518 190.828 604.778 198.087 604.778 207.042Z" fill=""/>
<path d="M604.778 714.474C604.778 723.429 597.518 730.688 588.563 730.688C579.608 730.688 572.349 723.429 572.349 714.474C572.349 705.519 579.608 698.259 588.563 698.259C597.518 698.259 604.778 705.519 604.778 714.474Z" fill=""/>
<path d="M391.431 270.471C391.431 279.426 384.172 286.685 375.217 286.685C366.262 286.685 359.002 279.426 359.002 270.471C359.002 261.516 366.262 254.257 375.217 254.257C384.172 254.257 391.431 261.516 391.431 270.471Z" fill=""/>
<path d="M391.431 16.7552C391.431 25.7102 384.172 32.9697 375.217 32.9697C366.262 32.9697 359.002 25.7102 359.002 16.7552C359.002 7.80023 366.262 0.540771 375.217 0.540771C384.172 0.540771 391.431 7.80023 391.431 16.7552Z" fill=""/>
<path d="M391.431 777.903C391.431 786.858 384.172 794.117 375.217 794.117C366.262 794.117 359.002 786.858 359.002 777.903C359.002 768.948 366.262 761.688 375.217 761.688C384.172 761.688 391.431 768.948 391.431 777.903Z" fill=""/>
<path d="M391.431 524.187C391.431 533.142 384.172 540.401 375.217 540.401C366.262 540.401 359.002 533.142 359.002 524.187C359.002 515.232 366.262 507.972 375.217 507.972C384.172 507.972 391.431 515.232 391.431 524.187Z" fill=""/>
<path d="M391.431 397.329C391.431 406.284 384.172 413.543 375.217 413.543C366.262 413.543 359.002 406.284 359.002 397.329C359.002 388.374 366.262 381.115 375.217 381.115C384.172 381.115 391.431 388.374 391.431 397.329Z" fill=""/>
<path d="M391.431 143.613C391.431 152.568 384.172 159.828 375.217 159.828C366.262 159.828 359.002 152.568 359.002 143.613C359.002 134.658 366.262 127.399 375.217 127.399C384.172 127.399 391.431 134.658 391.431 143.613Z" fill=""/>
<path d="M391.431 904.761C391.431 913.716 384.172 920.975 375.217 920.975C366.262 920.975 359.002 913.716 359.002 904.761C359.002 895.806 366.262 888.546 375.217 888.546C384.172 888.546 391.431 895.806 391.431 904.761Z" fill=""/>
<path d="M391.431 651.045C391.431 660 384.172 667.259 375.217 667.259C366.262 667.259 359.002 660 359.002 651.045C359.002 642.09 366.262 634.83 375.217 634.83C384.172 634.83 391.431 642.09 391.431 651.045Z" fill=""/>
<path d="M819.065 16.7552C819.065 25.7102 811.805 32.9697 802.85 32.9697C793.895 32.9697 786.636 25.7102 786.636 16.7552C786.636 7.80023 793.895 0.540771 802.85 0.540771C811.805 0.540771 819.065 7.80023 819.065 16.7552Z" fill=""/>
<path d="M819.065 143.613C819.065 152.568 811.805 159.828 802.85 159.828C793.895 159.828 786.636 152.568 786.636 143.613C786.636 134.658 793.895 127.399 802.85 127.399C811.805 127.399 819.065 134.658 819.065 143.613Z" fill=""/>
<path d="M391.431 333.9C391.431 342.855 384.172 350.114 375.217 350.114C366.262 350.114 359.002 342.855 359.002 333.9C359.002 324.945 366.262 317.686 375.217 317.686C384.172 317.686 391.431 324.945 391.431 333.9Z" fill=""/>
<path d="M391.431 80.1842C391.431 89.1392 384.172 96.3986 375.217 96.3986C366.262 96.3986 359.002 89.1392 359.002 80.1842C359.002 71.2292 366.262 63.9697 375.217 63.9697C384.172 63.9697 391.431 71.2292 391.431 80.1842Z" fill=""/>
<path d="M391.431 841.332C391.431 850.287 384.172 857.546 375.217 857.546C366.262 857.546 359.002 850.287 359.002 841.332C359.002 832.377 366.262 825.117 375.217 825.117C384.172 825.117 391.431 832.377 391.431 841.332Z" fill=""/>
<path d="M391.431 587.616C391.431 596.571 384.172 603.83 375.217 603.83C366.262 603.83 359.002 596.571 359.002 587.616C359.002 578.661 366.262 571.401 375.217 571.401C384.172 571.401 391.431 578.661 391.431 587.616Z" fill=""/>
<path d="M391.431 460.758C391.431 469.713 384.172 476.972 375.217 476.972C366.262 476.972 359.002 469.713 359.002 460.758C359.002 451.803 366.262 444.543 375.217 444.543C384.172 444.543 391.431 451.803 391.431 460.758Z" fill=""/>
<path d="M391.431 207.042C391.431 215.997 384.172 223.257 375.217 223.257C366.262 223.257 359.002 215.997 359.002 207.042C359.002 198.087 366.262 190.828 375.217 190.828C384.172 190.828 391.431 198.087 391.431 207.042Z" fill=""/>
<path d="M391.431 714.474C391.431 723.429 384.172 730.688 375.217 730.688C366.262 730.688 359.002 723.429 359.002 714.474C359.002 705.519 366.262 698.259 375.217 698.259C384.172 698.259 391.431 705.519 391.431 714.474Z" fill=""/>
<path d="M819.065 80.1842C819.065 89.1392 811.805 96.3986 802.85 96.3986C793.895 96.3986 786.636 89.1392 786.636 80.1842C786.636 71.2292 793.895 63.9697 802.85 63.9697C811.805 63.9697 819.065 71.2292 819.065 80.1842Z" fill=""/>
</svg>
